<?xml version="1.0" encoding="UTF-8"?>
<svg xmlns="http://www.w3.org/2000/svg" viewBox="0 0 500 500">
  <defs>
    <linearGradient id="sphereGradient" x1="0%" y1="0%" x2="100%" y2="100%">
      <stop offset="0%" style="stop-color:#06b6d4;stop-opacity:1" />
      <stop offset="100%" style="stop-color:#0ea5e9;stop-opacity:1" />
    </linearGradient>
    <filter id="glow">
      <feGaussianBlur stdDeviation="2" result="coloredBlur"/>
      <feMerge>
        <feMergeNode in="coloredBlur"/>
        <feMergeNode in="SourceGraphic"/>
      </feMerge>
    </filter>
  </defs>
  
  <!-- Dark background circle -->
  <circle cx="250" cy="250" r="240" fill="#0f172a"/>
  
  <!-- Circuit pattern -->
  <g transform="translate(250,250)" filter="url(#glow)">
    <g transform="rotate(-30)">
      <!-- Curved lines -->
      <path d="M-120,-80 C-40,-60 40,-60 120,-80" stroke="url(#sphereGradient)" fill="none" stroke-width="12" stroke-linecap="round"/>
      <path d="M-120,-40 C-40,-20 40,-20 120,-40" stroke="url(#sphereGradient)" fill="none" stroke-width="12" stroke-linecap="round"/>
      <path d="M-120,0 C-40,20 40,20 120,0" stroke="url(#sphereGradient)" fill="none" stroke-width="12" stroke-linecap="round"/>
      <path d="M-120,40 C-40,60 40,60 120,40" stroke="url(#sphereGradient)" fill="none" stroke-width="12" stroke-linecap="round"/>
      <path d="M-120,80 C-40,100 40,100 120,80" stroke="url(#sphereGradient)" fill="none" stroke-width="12" stroke-linecap="round"/>
      
      <!-- Connection points -->
      <circle cx="-120" cy="-80" r="6" fill="#06b6d4"/>
      <circle cx="0" cy="-60" r="6" fill="#06b6d4"/>
      <circle cx="120" cy="-80" r="6" fill="#06b6d4"/>
      
      <circle cx="-120" cy="-40" r="6" fill="#06b6d4"/>
      <circle cx="0" cy="-20" r="6" fill="#06b6d4"/>
      <circle cx="120" cy="-40" r="6" fill="#06b6d4"/>
      
      <circle cx="-120" cy="0" r="6" fill="#06b6d4"/>
      <circle cx="0" cy="20" r="6" fill="#06b6d4"/>
      <circle cx="120" cy="0" r="6" fill="#06b6d4"/>
      
      <circle cx="-120" cy="40" r="6" fill="#06b6d4"/>
      <circle cx="0" cy="60" r="6" fill="#06b6d4"/>
      <circle cx="120" cy="40" r="6" fill="#06b6d4"/>
      
      <circle cx="-120" cy="80" r="6" fill="#06b6d4"/>
      <circle cx="0" cy="100" r="6" fill="#06b6d4"/>
      <circle cx="120" cy="80" r="6" fill="#06b6d4"/>
    </g>
  </g>
</svg>
